<svg xmlns="http://www.w3.org/2000/svg" class="covid-speed-histogram desk-notif-card__covid-histogram" width="41"><rect x="0" y="3.8%" width="2" height="96.2%" rx="1.5" ry="1.5" fill="#a2202c"></rect><rect x="3" y="15.6%" width="2" height="84.4%" rx="1.5" ry="1.5" fill="#e95b3b"></rect><rect x="6" y="18.3%" width="2" height="81.7%" rx="1.5" ry="1.5" fill="#ee924f"></rect><rect x="9" y="4.8%" width="2" height="95.2%" rx="1.5" ry="1.5" fill="#a2202c"></rect><rect x="12" y="7.8%" width="2" height="92.2%" rx="1.5" ry="1.5" fill="#d1352b"></rect><rect x="15" y="10.2%" width="2" height="89.8%" rx="1.5" ry="1.5" fill="#d1352b"></rect><rect x="18" y="7.7%" width="2" height="92.3%" rx="1.5" ry="1.5" fill="#d1352b"></rect><rect x="21" y="13.3%" width="2" height="86.7%" rx="1.5" ry="1.5" fill="#e95b3b"></rect><rect x="24" y="18.7%" width="2" height="81.3%" rx="1.5" ry="1.5" fill="#ee924f"></rect><rect x="27" y="13.6%" width="2" height="86.4%" rx="1.5" ry="1.5" fill="#e95b3b"></rect><rect x="30" y="6.8%" width="2" height="93.2%" rx="1.5" ry="1.5" fill="#d1352b"></rect><rect x="33" y="4.6%" width="2" height="95.4%" rx="1.5" ry="1.5" fill="#a2202c"></rect><rect x="36" y="4.2%" width="2" height="95.8%" rx="1.5" ry="1.5" fill="#a2202c"></rect><rect x="39" y="0.0%" width="2" height="100.0%" rx="1.5" ry="1.5" fill="#a2202c"></rect></svg>