<svg width="36" height="36" fill="none" xmlns="http://www.w3.org/2000/svg"><circle cx="18" cy="18" r="18" fill="#fff"/><path fill-rule="evenodd" clip-rule="evenodd" d="M18.24 0a18 18 0 0 1 17.73 17l-.01.81c-7.9-.25-11.55-.46-14.44-3.27C18.7 11.63 18.5 7.97 18.24 0zM0 17.8A18 18 0 0 1 17.85 0c-.26 7.97-.45 11.64-3.29 14.53C11.66 17.36 8 17.55 0 17.8zm0 .4c8 .25 11.66.44 14.56 3.27 2.84 2.9 3.03 6.56 3.29 14.53A18 18 0 0 1 0 18.2zM18.24 36c.25-7.97.45-11.64 3.28-14.53 2.89-2.81 6.54-3.02 14.44-3.27v1.06A18 18 0 0 1 18.24 36z" fill="#232531"/><path fill-rule="evenodd" clip-rule="evenodd" d="M18.24 0a18 18 0 0 1 17.73 17l-.01.81c-7.9-.25-11.55-.46-14.44-3.27C18.7 11.63 18.5 7.97 18.24 0zM0 17.8A18 18 0 0 1 17.85 0c-.26 7.97-.45 11.64-3.29 14.53C11.66 17.36 8 17.55 0 17.8zm0 .4c8 .25 11.66.44 14.56 3.27 2.84 2.9 3.03 6.56 3.29 14.53A18 18 0 0 1 0 18.2zM18.24 36c.25-7.97.45-11.64 3.28-14.53 2.89-2.81 6.54-3.02 14.44-3.27v1.06A18 18 0 0 1 18.24 36z" fill="url(#paint0_linear)"/><defs><linearGradient id="paint0_linear" x1="35.97" y1="36" x2="35.97" y2="0" gradientUnits="userSpaceOnUse"><stop stop-color="#fff" stop-opacity=".01"/><stop offset=".48" stop-color="#fff" stop-opacity=".01"/><stop offset=".76" stop-color="#fff" stop-opacity=".04"/><stop offset="1" stop-color="#fff" stop-opacity=".1"/><stop offset="1" stop-color="#fff" stop-opacity=".1"/></linearGradient></defs></svg>