<svg width="44" height="44" fill="none" xmlns="http://www.w3.org/2000/svg"><path d="M21.5 40a17.5 17.5 0 1 0 .01-35 17.5 17.5 0 0 0 0 35z" fill="#B5F2C3"/><path d="M40.81 12.52c-1.79-3.5-8.35-3.94-15.88-1-2.15-2.63-5.44-3.64-7.86-2.24a4.83 4.83 0 0 0-1.92 2.08 5.78 5.78 0 0 0-3.96.63c-2.82 1.63-3.72 5.52-2.33 9.21-1.18 1.6-1.76 3.26-1.4 4.82.5 2.1 2.52 3.65 5.42 4.52a16.55 16.55 0 0 0-2.56 5.4c5.2 4.51 12.64 5.07 18.18 2.6-2.3-3.49-4.84-5.82-8.48-7.22.22 0 4.3-.52 6.17-.95 9.06-2.08 15.75-7.62 14.64-12.12 0 0 1.49-2.79-.02-5.73z" fill="url(#paint0_linear)"/><path d="M34.88 33.8a16.34 16.34 0 0 0-5.5-4.29c7.4-2.27 12.55-7.52 11.45-11.26-3.48 4.5-18.34 10.15-28.56 5.92-.41 3.07 1.72 5 4.84 6.46 4.65 2.17 7.43 4.48 9.85 8.5a17.64 17.64 0 0 0 7.92-5.33z" fill="url(#paint1_linear)"/><path d="M19.05 10.4a3.6 3.6 0 0 0-1.66 1.58 3.61 3.61 0 0 0-.18 3.05 65.16 65.16 0 0 1 1.44-.73l.14-.07.44-.21.03-.02.49-.23.12-.06a83.83 83.83 0 0 1 3.9-1.72 3.62 3.62 0 0 0-4.72-1.58z" fill="#F0F0F0"/><path d="M18.12 11.26c-.32.14-.56.4-.73.73a3.61 3.61 0 0 0-.18 3.04 61.28 61.28 0 0 1 .94-.48l.16-.08.34-.17.14-.07.44-.21.03-.02.49-.23.12-.06a97.67 97.67 0 0 1 .85-.4l.14-.06.4-.19.06-.02c-.78-1.47-2.18-2.26-3.2-1.78z" fill="#000"/><path d="M12.77 13.11a4.28 4.28 0 0 0-1.9 6l.12-.12.04-.03.13-.11v-.01a12.51 12.51 0 0 1 .32-.26l.02-.02a15.48 15.48 0 0 1 .34-.25l.02-.02.17-.13.04-.03a22.14 22.14 0 0 1 .35-.25l.04-.03a22.47 22.47 0 0 1 .38-.26l.03-.02a32.36 32.36 0 0 1 .4-.26l.04-.03a34 34 0 0 1 .42-.26l.03-.02.18-.12.05-.03.2-.13h.03l.2-.13.05-.03.21-.13h.02l.2-.13.07-.03.2-.12.02-.01c.92-.53 1.91-1.06 2.92-1.57a4.28 4.28 0 0 0-5.34-1.46z" fill="#F0F0F0"/><path d="M11.68 14.11a1.9 1.9 0 0 0-.83.78 4.27 4.27 0 0 0 .01 4.22 13.86 13.86 0 0 1 .3-.26v-.01a12.51 12.51 0 0 1 .68-.53l.02-.02.17-.13.04-.03.14-.1.04-.02.17-.13.04-.03.15-.1.04-.03.19-.13.03-.02.17-.1.04-.04.2-.12.03-.03a28.13 28.13 0 0 1 .42-.26l.03-.02a31.78 31.78 0 0 1 .44-.28h.02a36 36 0 0 1 .2-.13l.05-.03.21-.13h.02l.2-.13.07-.03.2-.12.02-.01.17-.1c-.94-1.62-2.52-2.47-3.68-1.93z" fill="#000"/><defs><linearGradient id="paint0_linear" x1="8.37" y1="24.32" x2="42.35" y2="24.32" gradientUnits="userSpaceOnUse"><stop stop-color="#279B53"/><stop offset="1" stop-color="#39E674"/></linearGradient><linearGradient id="paint1_linear" x1="12.22" y1="28.69" x2="38.16" y2="28.69" gradientUnits="userSpaceOnUse"><stop stop-color="#5EDF60"/><stop offset="1" stop-color="#84EE60"/></linearGradient></defs></svg>