<svg width="44" height="44" fill="none" xmlns="http://www.w3.org/2000/svg"><circle cx="22" cy="22" r="17" fill="#E0F6FF"/><path d="M22 5a17 17 0 0 0-10 3.25L22 22V5z" fill="#E0F6FF"/><path d="M12 8.25a17 17 0 0 0-6.17 8.5L22 22 12 8.25z" fill="#00CCA7"/><path d="M5.83 16.75a17 17 0 0 0 0 10.5L22 22 5.83 16.75z" fill="#383C46"/><path d="M5.83 27.25a17 17 0 0 0 6.18 8.5L22 22 5.83 27.25z" fill="#FF8A00"/><path d="M12 35.75A17 17 0 0 0 22 39V22L12 35.75z" fill="#8618FF"/><path d="M32 35.75A17 17 0 0 1 22 39V22l10 13.75z" fill="#CCC"/><path d="M38.17 27.25a17 17 0 0 1-6.18 8.5L22 22l16.17 5.25z" fill="#07F"/><path d="M38.17 16.75a17 17 0 0 1 0 10.5L22 22l16.17-5.25z" fill="#FF71C5"/><path d="M32 8.25a17 17 0 0 1 6.17 8.5L22 22 32 8.25z" fill="#FC0"/><path d="M22 5a17 17 0 0 1 10 3.25L22 22V5z" fill="#FF262F"/></svg>