<svg width="44" height="44" fill="none" xmlns="http://www.w3.org/2000/svg"><circle cx="22" cy="22" r="17" fill="#242729"/><path d="M16.86 10.95a8.45 8.45 0 1 0 9.08 14.25l12.4-7.9A17.03 17.03 0 0 0 25.6 5.38l-8.74 5.57z" fill="#FF9D7C"/><path d="M16.5 11.17a8.03 8.03 0 0 0 8.64 13.55l12.94-8.24A17.03 17.03 0 0 0 25.6 5.38l-9.1 5.8z" fill="#FFB49C"/><path d="M16.4 11.6a7.72 7.72 0 0 0 8.3 13.01l13.27-8.45A17.03 17.03 0 0 0 26 5.47l-9.6 6.12z" fill="#FFE66E"/><path d="M16.4 11.6a7.72 7.72 0 0 0 8.3 13.01l13.27-8.45A17.03 17.03 0 0 0 26 5.47l-9.6 6.12z" fill="url(#paint0_linear)"/><path d="M16.4 11.6a7.72 7.72 0 0 0 8.3 13.01l13.27-8.45A17.03 17.03 0 0 0 26 5.47l-9.6 6.12z" fill="#FF6432"/><path d="M16.4 11.6a7.72 7.72 0 0 0 8.3 13.01l13.27-8.45A17.03 17.03 0 0 0 26 5.47l-9.6 6.12z" fill="url(#paint1_radial)"/><path d="M16.4 11.6a7.72 7.72 0 0 0 8.3 13.01l13.27-8.45A17.03 17.03 0 0 0 26 5.47l-9.6 6.12z" fill="url(#paint2_linear)"/><path d="M5.66 26.7l12.4-7.91a8.45 8.45 0 0 1 9.08 14.25l-8.75 5.58A17.03 17.03 0 0 1 5.66 26.69z" fill="#FFEA95"/><path d="M5.66 26.7l12.75-8.14a8.04 8.04 0 0 1 8.64 13.56l-9.76 6.22A17.04 17.04 0 0 1 5.66 26.69z" fill="#FFF3C6"/><path d="M16.87 38.21A17.04 17.04 0 0 1 5.74 27l13.1-8.34a7.72 7.72 0 1 1 8.3 13.02L16.87 38.2z" fill="#FFE66E"/><path d="M16.87 38.21A17.04 17.04 0 0 1 5.74 27l13.1-8.34a7.72 7.72 0 1 1 8.3 13.02L16.87 38.2z" fill="url(#paint3_linear)"/><defs><linearGradient id="paint0_linear" x1="35.95" y1="5.09" x2="25.43" y2="21.22" gradientUnits="userSpaceOnUse"><stop stop-color="#FFD750" stop-opacity="0"/><stop offset="1" stop-color="#FFD750"/></linearGradient><radialGradient id="paint1_radial" cx="0" cy="0" r="1" gradientUnits="userSpaceOnUse" gradientTransform="matrix(16.73808 -11.58006 7.78681 11.25524 17.53 27.8)"><stop stop-color="#CC0700" stop-opacity=".97"/><stop offset=".07" stop-color="#CC0700" stop-opacity=".96"/><stop offset=".13" stop-color="#CC0700" stop-opacity=".94"/><stop offset=".2" stop-color="#CC0700" stop-opacity=".89"/><stop offset=".27" stop-color="#CC0700" stop-opacity=".83"/><stop offset=".33" stop-color="#CC0700" stop-opacity=".75"/><stop offset=".4" stop-color="#CC0700" stop-opacity=".65"/><stop offset=".47" stop-color="#CC0700" stop-opacity=".54"/><stop offset=".53" stop-color="#CC0700" stop-opacity=".43"/><stop offset=".6" stop-color="#CC0700" stop-opacity=".32"/><stop offset=".67" stop-color="#CC0700" stop-opacity=".22"/><stop offset=".73" stop-color="#CC0700" stop-opacity=".14"/><stop offset=".8" stop-color="#CC0700" stop-opacity=".08"/><stop offset=".87" stop-color="#CC0700" stop-opacity=".03"/><stop offset=".93" stop-color="#CC0700" stop-opacity=".01"/><stop offset="1" stop-color="#CC0700" stop-opacity="0"/></radialGradient><linearGradient id="paint2_linear" x1="18.76" y1="23.65" x2="28.99" y2="-4.39" gradientUnits="userSpaceOnUse"><stop stop-color="#FF8140" stop-opacity="0"/><stop offset=".07" stop-color="#FF8140" stop-opacity=".01"/><stop offset=".13" stop-color="#FF8140" stop-opacity=".04"/><stop offset=".2" stop-color="#FF8140" stop-opacity=".08"/><stop offset=".27" stop-color="#FF8140" stop-opacity=".15"/><stop offset=".33" stop-color="#FF8140" stop-opacity=".23"/><stop offset=".4" stop-color="#FF8140" stop-opacity=".33"/><stop offset=".47" stop-color="#FF8140" stop-opacity=".44"/><stop offset=".53" stop-color="#FF8140" stop-opacity=".56"/><stop offset=".6" stop-color="#FF8140" stop-opacity=".67"/><stop offset=".67" stop-color="#FF8140" stop-opacity=".77"/><stop offset=".73" stop-color="#FF8140" stop-opacity=".85"/><stop offset=".8" stop-color="#FF8140" stop-opacity=".92"/><stop offset=".87" stop-color="#FF8140" stop-opacity=".96"/><stop offset=".93" stop-color="#FF8140" stop-opacity=".99"/><stop offset="1" stop-color="#FF8140"/></linearGradient><linearGradient id="paint3_linear" x1="19.6" y1="24.12" x2="9.08" y2="40.24" gradientUnits="userSpaceOnUse"><stop stop-color="#FFD750" stop-opacity="0"/><stop offset="1" stop-color="#FFD750"/></linearGradient></defs></svg>